<svg width="376" height="1392" viewBox="0 0 376 1392" fill="none" xmlns="http://www.w3.org/2000/svg">
<path fill-rule="evenodd" clip-rule="evenodd" d="M-39.3794 60.6576C89.5219 147.479 88.3995 330.921 157.574 469.822C230.09 615.435 385.42 731.293 375.255 893.24C364.789 1059.96 248.549 1214.12 105.439 1300.37C-27.375 1380.41 -193.622 1316.54 -348.501 1329.4C-496.946 1341.74 -643.155 1428.44 -782.095 1374.12C-928.455 1316.9 -1028.36 1179.43 -1095.21 1037.49C-1162.55 894.493 -1193.53 732.784 -1156.23 579.676C-1119.78 430.046 -1012.11 312.328 -894.351 213.024C-780.628 117.127 -647.198 52.8055 -500.398 26.644C-345.068 -1.03785 -170.506 -27.6627 -39.3794 60.6576Z" fill="#F9B609"/>
</svg>
