<svg width="278" height="988" viewBox="0 0 278 988" fill="none" xmlns="http://www.w3.org/2000/svg">
<path fill-rule="evenodd" clip-rule="evenodd" d="M875.07 66.3592C987.376 139.252 1001.29 271.151 1069.02 376.686C1140.03 487.321 1276.27 583.243 1281.06 698.945C1286 818.055 1203.52 919.582 1093.6 970.064C991.59 1016.91 850.636 957.515 725.173 954.251C604.921 951.123 492.509 1001.68 374.632 951.363C250.459 898.358 157.742 791.369 91.6634 683.831C25.098 575.501 -13.283 456.642 4.80353 349.495C22.4792 244.781 100.899 168.786 189.056 106.857C274.19 47.0526 377.974 11.5615 495.763 4.60796C620.398 -2.74966 760.826 -7.79166 875.07 66.3592Z" fill="#F9B609"/>
</svg>
