<svg width="646" height="1173" viewBox="0 0 646 1173" fill="none" xmlns="http://www.w3.org/2000/svg">
<path fill-rule="evenodd" clip-rule="evenodd" d="M6.4645 597.485C-28.6968 428.26 98.514 289.083 143.242 127.784C190.131 -41.3086 155.502 -253.809 274.567 -369.352C397.14 -488.298 589.003 -513.198 753.869 -464.778C906.874 -419.841 985.364 -238.318 1108.35 -124.473C1226.23 -15.3567 1393.69 35.194 1458.64 187.615C1527.06 348.177 1505.96 532.921 1457.42 694.688C1408.53 857.646 1319.94 1005.86 1186.97 1092.99C1057.02 1178.14 896.592 1182.05 741.405 1163.85C591.541 1146.26 448.912 1088.83 322.722 991.587C189.198 888.691 42.2327 769.631 6.4645 597.485Z" fill="#F9B609"/>
</svg>
