<svg width="1440" height="2086" viewBox="0 0 1440 2086" fill="none" xmlns="http://www.w3.org/2000/svg">
<path d="M-167.57 0.422119L-107.768 195.024C-47.9493 386.729 71.6315 780.28 192.972 857.281C314.296 937.18 437.338 707.774 559.951 555.875C682.579 401.078 804.736 331.033 926.076 408.035C1047.4 487.934 1167.87 722.123 1288.33 956.312C1408.8 1190.5 1529.27 1424.69 1651.45 1349.58C1773.62 1277.36 1897.55 888.59 1959.49 699.277L2021.44 507.066L2012.42 2129.65L1951.54 2128.46C1890.67 2127.26 1768.91 2124.87 1647.16 2122.48C1525.4 2120.09 1403.65 2117.69 1281.89 2115.3C1160.14 2112.91 1038.38 2110.52 916.628 2108.13C794.873 2105.74 673.118 2103.34 551.364 2100.95C429.609 2098.56 307.854 2096.17 186.099 2093.78C64.3447 2091.39 -57.41 2088.99 -118.287 2087.8L-179.165 2086.6L-167.57 0.422119Z" fill="#F9B609"/>
</svg>
